<mxfile host="drawio-plugin" modified="2025-10-11T21:53:12.352Z" agent="Mozilla/5.0 (Windows NT 10.0; Win64; x64) AppleWebKit/537.36 (KHTML, like Gecko) Chrome/122.0.0.0 Safari/537.36" etag="skrYKiXlyAa6OdclG8Ik" version="22.1.22" type="embed" pages="4">
  <diagram id="moduleDeps" name="Module Dependencies">
    <mxGraphModel dx="2088" dy="534" grid="1" gridSize="10" guides="1" tooltips="1" connect="1" arrows="1" fold="1" page="1" pageScale="1" pageWidth="1100" pageHeight="850" math="0" shadow="0">
      <root>
        <mxCell id="0" />
        <mxCell id="1" parent="0" />
        <mxCell id="tools" value="serapeum.core.tools" style="swimlane;fontSize=12;horizontal=1;rounded=0;" parent="1" vertex="1">
          <mxGeometry x="20" y="20" width="560" height="300" as="geometry">
            <mxRectangle x="20" y="20" width="160" height="30" as="alternateBounds" />
          </mxGeometry>
        </mxCell>
        <mxCell id="init" value="__init__" style="rounded=1;whiteSpace=wrap;html=1;fillColor=#dae8fc;strokeColor=#6c8ebf;" parent="tools" vertex="1">
          <mxGeometry x="20" y="30" width="120" height="40" as="geometry" />
        </mxCell>
        <mxCell id="callable_tool" value="callable_tool" style="rounded=1;whiteSpace=wrap;html=1;fillColor=#fff2cc;strokeColor=#d6b656;" parent="tools" vertex="1">
          <mxGeometry x="20" y="90" width="140" height="40" as="geometry" />
        </mxCell>
        <mxCell id="models" value="models" style="rounded=1;whiteSpace=wrap;html=1;fillColor=#d5e8d4;strokeColor=#82b366;" parent="tools" vertex="1">
          <mxGeometry x="320" y="220" width="120" height="40" as="geometry" />
        </mxCell>
        <mxCell id="utils" value="utils" style="rounded=1;whiteSpace=wrap;html=1;fillColor=#f8cecc;strokeColor=#b85450;" parent="tools" vertex="1">
          <mxGeometry x="360" y="90" width="120" height="40" as="geometry" />
        </mxCell>
        <mxCell id="ext_async_utils" value="serapeum.core.utils.async_utils" style="rounded=1;whiteSpace=wrap;html=1;" parent="1" vertex="1">
          <mxGeometry x="-130" y="425" width="260" height="40" as="geometry" />
        </mxCell>
        <mxCell id="ext_llms_models" value="serapeum.core.base.llms.models" style="rounded=1;whiteSpace=wrap;html=1;" parent="1" vertex="1">
          <mxGeometry x="180" y="430" width="260" height="40" as="geometry" />
        </mxCell>
        <mxCell id="edge1" style="endArrow=block;rounded=0;" parent="1" source="callable_tool" target="models" edge="1">
          <mxGeometry relative="1" as="geometry" />
        </mxCell>
        <mxCell id="edge2" style="endArrow=block;rounded=0;" parent="1" source="callable_tool" target="utils" edge="1">
          <mxGeometry relative="1" as="geometry" />
        </mxCell>
        <mxCell id="edge3" style="endArrow=block;rounded=0;" parent="1" source="callable_tool" target="ext_async_utils" edge="1">
          <mxGeometry relative="1" as="geometry" />
        </mxCell>
        <mxCell id="edge4" style="endArrow=block;rounded=0;" parent="1" source="callable_tool" target="ext_llms_models" edge="1">
          <mxGeometry relative="1" as="geometry" />
        </mxCell>
        <mxCell id="edge5" style="endArrow=block;rounded=0;" parent="1" source="models" target="ext_llms_models" edge="1">
          <mxGeometry relative="1" as="geometry" />
        </mxCell>
        <mxCell id="edge6" style="endArrow=block;rounded=0;" parent="1" source="utils" target="models" edge="1">
          <mxGeometry relative="1" as="geometry" />
        </mxCell>
      </root>
    </mxGraphModel>
  </diagram>
  <diagram id="FCr91ObE2520dJbtg_sx" name="UML Class">
    <mxGraphModel dx="1432" dy="1875" grid="1" gridSize="10" guides="1" tooltips="1" connect="1" arrows="1" fold="1" page="1" pageScale="1" pageWidth="850" pageHeight="1100" math="0" shadow="0">
      <root>
        <mxCell id="0" />
        <mxCell id="1" parent="0" />
        <mxCell id="9mjqBUGsZNJlLk6NVuBd-1" value="BaseTool" style="shape=rectangle;whiteSpace=wrap;html=1;rounded=1;" vertex="1" parent="1">
          <mxGeometry x="60" y="60" width="180" height="100" as="geometry" />
        </mxCell>
        <mxCell id="9mjqBUGsZNJlLk6NVuBd-2" value="AsyncBaseTool" style="shape=rectangle;whiteSpace=wrap;html=1;rounded=1;" vertex="1" parent="1">
          <mxGeometry x="310" y="50" width="200" height="120" as="geometry" />
        </mxCell>
        <mxCell id="9mjqBUGsZNJlLk6NVuBd-3" value="BaseToolAsyncAdapter" style="shape=rectangle;whiteSpace=wrap;html=1;rounded=1;" vertex="1" parent="1">
          <mxGeometry x="290" y="-140" width="220" height="120" as="geometry" />
        </mxCell>
        <mxCell id="9mjqBUGsZNJlLk6NVuBd-4" value="CallableTool" style="shape=rectangle;whiteSpace=wrap;html=1;rounded=1;" vertex="1" parent="1">
          <mxGeometry x="990" y="10" width="220" height="160" as="geometry" />
        </mxCell>
        <mxCell id="9mjqBUGsZNJlLk6NVuBd-5" value="ToolMetadata" style="shape=rectangle;whiteSpace=wrap;html=1;rounded=1;fillColor=#d5e8d4;" vertex="1" parent="1">
          <mxGeometry x="1370" width="240" height="160" as="geometry" />
        </mxCell>
        <mxCell id="9mjqBUGsZNJlLk6NVuBd-6" value="ToolOutput" style="shape=rectangle;whiteSpace=wrap;html=1;rounded=1;fillColor=#dae8fc;" vertex="1" parent="1">
          <mxGeometry x="550" y="260" width="240" height="160" as="geometry" />
        </mxCell>
        <mxCell id="9mjqBUGsZNJlLk6NVuBd-7" value="ToolCallArguments" style="shape=rectangle;whiteSpace=wrap;html=1;rounded=1;fillColor=#fff2cc;" vertex="1" parent="1">
          <mxGeometry x="540" y="470" width="240" height="140" as="geometry" />
        </mxCell>
        <mxCell id="9mjqBUGsZNJlLk6NVuBd-8" value="SyncAsyncConverter" style="shape=rectangle;whiteSpace=wrap;html=1;rounded=1;" vertex="1" parent="1">
          <mxGeometry x="290" y="200" width="220" height="120" as="geometry" />
        </mxCell>
        <mxCell id="9mjqBUGsZNJlLk6NVuBd-9" value="Docstring" style="shape=rectangle;whiteSpace=wrap;html=1;rounded=1;" vertex="1" parent="1">
          <mxGeometry x="1390" y="250" width="180" height="100" as="geometry" />
        </mxCell>
        <mxCell id="9mjqBUGsZNJlLk6NVuBd-10" value="FunctionConverter" style="shape=rectangle;whiteSpace=wrap;html=1;rounded=1;" vertex="1" parent="1">
          <mxGeometry x="1160" y="380" width="220" height="120" as="geometry" />
        </mxCell>
        <mxCell id="9mjqBUGsZNJlLk6NVuBd-11" value="ToolExecutor" style="shape=rectangle;whiteSpace=wrap;html=1;rounded=1;" vertex="1" parent="1">
          <mxGeometry x="20" y="460" width="260" height="150" as="geometry" />
        </mxCell>
        <mxCell id="9mjqBUGsZNJlLk6NVuBd-12" style="endArrow=block;dashed=0;" edge="1" parent="1" source="9mjqBUGsZNJlLk6NVuBd-2" target="9mjqBUGsZNJlLk6NVuBd-1">
          <mxGeometry relative="1" as="geometry" />
        </mxCell>
        <mxCell id="9mjqBUGsZNJlLk6NVuBd-13" style="endArrow=block;dashed=0;" edge="1" parent="1" source="9mjqBUGsZNJlLk6NVuBd-3" target="9mjqBUGsZNJlLk6NVuBd-2">
          <mxGeometry relative="1" as="geometry" />
        </mxCell>
        <mxCell id="9mjqBUGsZNJlLk6NVuBd-14" style="endArrow=block;dashed=0;" edge="1" parent="1" source="9mjqBUGsZNJlLk6NVuBd-4" target="9mjqBUGsZNJlLk6NVuBd-2">
          <mxGeometry relative="1" as="geometry" />
        </mxCell>
        <mxCell id="9mjqBUGsZNJlLk6NVuBd-15" style="endArrow=block;dashed=0;" edge="1" parent="1" source="9mjqBUGsZNJlLk6NVuBd-4" target="9mjqBUGsZNJlLk6NVuBd-5">
          <mxGeometry relative="1" as="geometry" />
        </mxCell>
        <mxCell id="9mjqBUGsZNJlLk6NVuBd-16" style="endArrow=block;dashed=0;" edge="1" parent="1" source="9mjqBUGsZNJlLk6NVuBd-4" target="9mjqBUGsZNJlLk6NVuBd-9">
          <mxGeometry relative="1" as="geometry" />
        </mxCell>
        <mxCell id="9mjqBUGsZNJlLk6NVuBd-17" style="endArrow=block;dashed=0;" edge="1" parent="1" source="9mjqBUGsZNJlLk6NVuBd-4" target="9mjqBUGsZNJlLk6NVuBd-10">
          <mxGeometry relative="1" as="geometry" />
        </mxCell>
        <mxCell id="9mjqBUGsZNJlLk6NVuBd-18" style="endArrow=block;dashed=0;" edge="1" parent="1" source="9mjqBUGsZNJlLk6NVuBd-11" target="9mjqBUGsZNJlLk6NVuBd-1">
          <mxGeometry relative="1" as="geometry" />
        </mxCell>
        <mxCell id="9mjqBUGsZNJlLk6NVuBd-19" style="endArrow=block;dashed=0;" edge="1" parent="1" source="9mjqBUGsZNJlLk6NVuBd-11" target="9mjqBUGsZNJlLk6NVuBd-7">
          <mxGeometry relative="1" as="geometry" />
        </mxCell>
      </root>
    </mxGraphModel>
  </diagram>
  <diagram id="kO9PwwZzJ9UAzPG9PkKe" name="Call Graph">
    <mxGraphModel dx="1432" dy="775" grid="1" gridSize="10" guides="1" tooltips="1" connect="1" arrows="1" fold="1" page="1" pageScale="1" pageWidth="850" pageHeight="1100" math="0" shadow="0">
      <root>
        <mxCell id="0" />
        <mxCell id="1" parent="0" />
        <mxCell id="jFOJwJIut3dkr707T0xZ-2" value="CallableTool.__call__" style="rounded=1;whiteSpace=wrap;html=1;fillColor=#dae8fc;" vertex="1" parent="1">
          <mxGeometry x="60" y="60" width="220" height="40" as="geometry" />
        </mxCell>
        <mxCell id="jFOJwJIut3dkr707T0xZ-3" value="CallableTool.call" style="rounded=1;whiteSpace=wrap;html=1;fillColor=#d5e8d4;" vertex="1" parent="1">
          <mxGeometry x="340" y="60" width="200" height="40" as="geometry" />
        </mxCell>
        <mxCell id="jFOJwJIut3dkr707T0xZ-4" value="CallableTool.acall" style="rounded=1;whiteSpace=wrap;html=1;fillColor=#d5e8d4;" vertex="1" parent="1">
          <mxGeometry x="340" y="120" width="200" height="40" as="geometry" />
        </mxCell>
        <mxCell id="jFOJwJIut3dkr707T0xZ-5" value="CallableTool._parse_tool_output" style="rounded=1;whiteSpace=wrap;html=1;fillColor=#fff2cc;" vertex="1" parent="1">
          <mxGeometry x="620" y="90" width="260" height="40" as="geometry" />
        </mxCell>
        <mxCell id="jFOJwJIut3dkr707T0xZ-6" value="ToolOutput()" style="rounded=1;whiteSpace=wrap;html=1;" vertex="1" parent="1">
          <mxGeometry x="920" y="90" width="180" height="40" as="geometry" />
        </mxCell>
        <mxCell id="jFOJwJIut3dkr707T0xZ-7" value="ToolExecutor.execute" style="rounded=1;whiteSpace=wrap;html=1;fillColor=#f8cecc;" vertex="1" parent="1">
          <mxGeometry x="60" y="260" width="220" height="40" as="geometry" />
        </mxCell>
        <mxCell id="jFOJwJIut3dkr707T0xZ-8" value="ToolExecutor._invoke_tool" style="rounded=1;whiteSpace=wrap;html=1;" vertex="1" parent="1">
          <mxGeometry x="340" y="260" width="240" height="40" as="geometry" />
        </mxCell>
        <mxCell id="jFOJwJIut3dkr707T0xZ-9" value="ToolExecutor._should_unpack_single_arg" style="rounded=1;whiteSpace=wrap;html=1;" vertex="1" parent="1">
          <mxGeometry x="620" y="220" width="300" height="40" as="geometry" />
        </mxCell>
        <mxCell id="jFOJwJIut3dkr707T0xZ-10" value="ToolExecutor._try_single_arg_then_kwargs" style="rounded=1;whiteSpace=wrap;html=1;" vertex="1" parent="1">
          <mxGeometry x="620" y="300" width="320" height="40" as="geometry" />
        </mxCell>
        <mxCell id="jFOJwJIut3dkr707T0xZ-11" style="endArrow=block;" edge="1" parent="1" source="jFOJwJIut3dkr707T0xZ-2" target="jFOJwJIut3dkr707T0xZ-3">
          <mxGeometry relative="1" as="geometry" />
        </mxCell>
        <mxCell id="jFOJwJIut3dkr707T0xZ-12" style="endArrow=block;" edge="1" parent="1" source="jFOJwJIut3dkr707T0xZ-3" target="jFOJwJIut3dkr707T0xZ-5">
          <mxGeometry relative="1" as="geometry" />
        </mxCell>
        <mxCell id="jFOJwJIut3dkr707T0xZ-13" style="endArrow=block;" edge="1" parent="1" source="jFOJwJIut3dkr707T0xZ-4" target="jFOJwJIut3dkr707T0xZ-5">
          <mxGeometry relative="1" as="geometry" />
        </mxCell>
        <mxCell id="jFOJwJIut3dkr707T0xZ-14" style="endArrow=block;" edge="1" parent="1" source="jFOJwJIut3dkr707T0xZ-5" target="jFOJwJIut3dkr707T0xZ-6">
          <mxGeometry relative="1" as="geometry" />
        </mxCell>
        <mxCell id="jFOJwJIut3dkr707T0xZ-15" style="endArrow=block;" edge="1" parent="1" source="jFOJwJIut3dkr707T0xZ-7" target="jFOJwJIut3dkr707T0xZ-8">
          <mxGeometry relative="1" as="geometry" />
        </mxCell>
        <mxCell id="jFOJwJIut3dkr707T0xZ-16" style="endArrow=block;" edge="1" parent="1" source="jFOJwJIut3dkr707T0xZ-8" target="jFOJwJIut3dkr707T0xZ-9">
          <mxGeometry relative="1" as="geometry" />
        </mxCell>
        <mxCell id="jFOJwJIut3dkr707T0xZ-17" style="endArrow=block;" edge="1" parent="1" source="jFOJwJIut3dkr707T0xZ-8" target="jFOJwJIut3dkr707T0xZ-10">
          <mxGeometry relative="1" as="geometry" />
        </mxCell>
      </root>
    </mxGraphModel>
  </diagram>
  <diagram id="ZOlPgdJR6A3GVzfde5c-" name="Package Hierarchy">
    <mxGraphModel dx="1432" dy="775" grid="1" gridSize="10" guides="1" tooltips="1" connect="1" arrows="1" fold="1" page="1" pageScale="1" pageWidth="850" pageHeight="1100" math="0" shadow="0">
      <root>
        <mxCell id="0" />
        <mxCell id="1" parent="0" />
        <mxCell id="fCGHOnukEeYwL6ZwdM-1-1" value="serapeum" style="swimlane;fontSize=12;horizontal=1;rounded=0;" vertex="1" parent="1">
          <mxGeometry x="20" y="20" width="620" height="360" as="geometry" />
        </mxCell>
        <mxCell id="fCGHOnukEeYwL6ZwdM-1-2" value="core" style="swimlane;fontSize=12;horizontal=1;rounded=0;" vertex="1" parent="fCGHOnukEeYwL6ZwdM-1-1">
          <mxGeometry x="20" y="40" width="580" height="300" as="geometry" />
        </mxCell>
        <mxCell id="fCGHOnukEeYwL6ZwdM-1-3" value="tools" style="swimlane;fontSize=12;horizontal=1;rounded=0;" vertex="1" parent="fCGHOnukEeYwL6ZwdM-1-2">
          <mxGeometry x="20" y="40" width="540" height="240" as="geometry">
            <mxRectangle x="20" y="40" width="70" height="30" as="alternateBounds" />
          </mxGeometry>
        </mxCell>
        <mxCell id="fCGHOnukEeYwL6ZwdM-1-4" value="__init__.py" style="rounded=1;whiteSpace=wrap;html=1;" vertex="1" parent="fCGHOnukEeYwL6ZwdM-1-3">
          <mxGeometry x="20" y="30" width="120" height="40" as="geometry" />
        </mxCell>
        <mxCell id="fCGHOnukEeYwL6ZwdM-1-5" value="callable_tool.py" style="rounded=1;whiteSpace=wrap;html=1;" vertex="1" parent="fCGHOnukEeYwL6ZwdM-1-3">
          <mxGeometry x="160" y="30" width="160" height="40" as="geometry" />
        </mxCell>
        <mxCell id="fCGHOnukEeYwL6ZwdM-1-6" value="models.py" style="rounded=1;whiteSpace=wrap;html=1;" vertex="1" parent="fCGHOnukEeYwL6ZwdM-1-3">
          <mxGeometry x="340" y="30" width="120" height="40" as="geometry" />
        </mxCell>
        <mxCell id="fCGHOnukEeYwL6ZwdM-1-7" value="utils.py" style="rounded=1;whiteSpace=wrap;html=1;" vertex="1" parent="fCGHOnukEeYwL6ZwdM-1-3">
          <mxGeometry x="20" y="90" width="120" height="40" as="geometry" />
        </mxCell>
      </root>
    </mxGraphModel>
  </diagram>
</mxfile>
